<?xml version="1.0" encoding="UTF-8"?>
<svg version="1.1" xmlns="http://www.w3.org/2000/svg" width="342" height="148">
<path d="M0 0 C10.89 0 21.78 0 33 0 C36.13422593 7.52214223 39.03905409 14.78485807 41.5 22.5 C43.99711133 30.17239344 46.69067538 37.6340839 50 45 C53.93082282 35.62649942 57.37226702 26.18242594 60.46313477 16.49926758 C62.2998618 10.81969279 64.46540113 5.40463529 67 0 C71.53897705 -0.02465392 76.07791543 -0.04283789 80.61694336 -0.05493164 C82.16219766 -0.0599714 83.70744716 -0.0668032 85.25268555 -0.07543945 C87.46925029 -0.08752076 89.68575218 -0.09323173 91.90234375 -0.09765625 C92.5971434 -0.10281754 93.29194305 -0.10797882 94.00779724 -0.11329651 C95.6722933 -0.11349277 97.33665499 -0.06189129 99 0 C100.71459334 1.71459334 100.13211238 3.89188897 100.14663696 6.17910767 C100.14595718 7.29109024 100.14595718 7.29109024 100.14526367 8.42553711 C100.14862228 9.2027562 100.1519809 9.97997528 100.15544128 10.78074646 C100.16497961 13.36296159 100.16689583 15.94511208 100.16796875 18.52734375 C100.17117932 20.31474332 100.17454324 22.10214262 100.17805481 23.88954163 C100.18405329 27.64145518 100.18589397 31.39334566 100.18530273 35.14526367 C100.18520107 39.96204823 100.19885452 44.77868552 100.21607494 49.59543514 C100.22717248 53.28850489 100.22922264 56.98153877 100.22869301 60.67462349 C100.22987648 62.45089793 100.23431865 64.2271732 100.24202538 66.00343132 C100.25178017 68.48408306 100.24896526 70.96441185 100.24291992 73.44506836 C100.24853943 74.18436584 100.25415894 74.92366333 100.25994873 75.68536377 C100.22831564 80.77168436 100.22831564 80.77168436 98 83 C95.49389648 83.24291992 95.49389648 83.24291992 92.37109375 83.23046875 C91.25412109 83.22853516 90.13714844 83.22660156 88.98632812 83.22460938 C87.81521484 83.21236328 86.64410156 83.20011719 85.4375 83.1875 C84.26251953 83.18685547 83.08753906 83.18621094 81.87695312 83.18554688 C73.14012141 83.14012141 73.14012141 83.14012141 72 82 C71.91209025 79.70848583 71.89305962 77.41427476 71.90234375 75.12109375 C71.9037587 74.4344313 71.90517365 73.74776886 71.90663147 73.04029846 C71.91224521 70.83932199 71.92479993 68.63844591 71.9375 66.4375 C71.94251324 64.94856917 71.94707645 63.45963676 71.95117188 61.97070312 C71.96221907 58.31376925 71.97949287 54.65689442 72 51 C71.41992188 52.84851563 71.41992188 52.84851563 70.828125 54.734375 C62.37477188 81.62522812 62.37477188 81.62522812 61 83 C59.36527118 83.08700342 57.72685945 83.10701063 56.08984375 83.09765625 C55.10048828 83.09443359 54.11113281 83.09121094 53.09179688 83.08789062 C52.05087891 83.07951172 51.00996094 83.07113281 49.9375 83.0625 C48.89271484 83.05798828 47.84792969 83.05347656 46.77148438 83.04882812 C44.1809334 83.03699913 41.59049441 83.02051689 39 83 C35.7044902 77.22018281 34.11056586 70.998937 32.3125 64.625 C31.83200195 62.94857422 31.83200195 62.94857422 31.34179688 61.23828125 C30.55593838 58.49364113 29.77552026 55.74757567 29 53 C28.98018066 53.83772949 28.96036133 54.67545898 28.93994141 55.53857422 C28.86189388 58.64365834 28.77520365 61.74834539 28.68261719 64.85302734 C28.62545964 66.85886971 28.57831404 68.86498918 28.53125 70.87109375 C28.49257812 72.12792969 28.45390625 73.38476562 28.4140625 74.6796875 C28.3826416 75.84226074 28.3512207 77.00483398 28.31884766 78.20263672 C28 81 28 81 26 83 C23.49389648 83.24291992 23.49389648 83.24291992 20.37109375 83.23046875 C19.25412109 83.22853516 18.13714844 83.22660156 16.98632812 83.22460938 C15.81521484 83.21236328 14.64410156 83.20011719 13.4375 83.1875 C12.26251953 83.18685547 11.08753906 83.18621094 9.87695312 83.18554688 C1.14012141 83.14012141 1.14012141 83.14012141 0 82 C-0.09506052 79.44410112 -0.12556761 76.91532028 -0.11352539 74.35913086 C-0.11367142 73.55919205 -0.11381744 72.75925323 -0.1139679 71.93507385 C-0.11326855 69.27830335 -0.10547518 66.62160207 -0.09765625 63.96484375 C-0.09579215 62.12781309 -0.09436821 60.29078194 -0.09336853 58.45375061 C-0.08954275 53.60890338 -0.07971196 48.76408592 -0.06866455 43.91925049 C-0.05845172 38.97937422 -0.05387119 34.03949315 -0.04882812 29.09960938 C-0.03808974 19.39972437 -0.02049246 9.69986931 0 0 Z " fill="#0D0D0D" transform="translate(203,24)"/>
<path d="M0 0 C3.4480652 2.8343096 3.4480652 2.8343096 4.953125 4.48046875 C4.953125 5.14046875 4.953125 5.80046875 4.953125 6.48046875 C5.613125 6.48046875 6.273125 6.48046875 6.953125 6.48046875 C15.13943015 17.1979156 16.96286421 28.25568993 15.953125 41.48046875 C14.75664611 49.36725877 11.74713176 55.18195987 6.953125 61.48046875 C5.9940625 62.84171875 5.9940625 62.84171875 5.015625 64.23046875 C-1.69411754 71.55018789 -10.91392929 76.19725524 -20.8125 76.96875 C-33.69370153 77.51453237 -44.40589575 75.79813321 -54.484375 67.16796875 C-56.03746808 65.63753019 -57.56132842 64.0765551 -59.046875 62.48046875 C-59.94212891 61.52140625 -59.94212891 61.52140625 -60.85546875 60.54296875 C-68.49368881 51.39996219 -70.17676927 40.03787095 -69.30078125 28.47314453 C-68.63819758 23.27313694 -66.91840876 18.35982464 -65.046875 13.48046875 C-64.386875 13.48046875 -63.726875 13.48046875 -63.046875 13.48046875 C-63.046875 12.49046875 -63.046875 11.50046875 -63.046875 10.48046875 C-62.386875 10.48046875 -61.726875 10.48046875 -61.046875 10.48046875 C-60.881875 9.79984375 -60.716875 9.11921875 -60.546875 8.41796875 C-56.6971167 0.87885874 -48.70675462 -3.53939571 -41.046875 -6.51953125 C-27.03791821 -10.7091258 -11.8810062 -8.82005995 0 0 Z M-36.796875 20.85546875 C-41.39620773 26.22135694 -41.42139453 30.39400365 -41.296875 37.34375 C-40.87711148 42.61047046 -39.35412509 45.30075526 -35.484375 48.79296875 C-30.98934345 51.90491367 -27.42206387 51.99372463 -22.046875 51.48046875 C-17.88598858 49.72365004 -15.61797551 47.15346948 -13.046875 43.48046875 C-11.10535814 37.65591817 -11.02432234 30.29149361 -13.171875 24.48046875 C-16.1214828 19.76109627 -19.19288531 17.94396617 -24.546875 16.60546875 C-29.84986428 16.41607628 -32.7731198 17.38040744 -36.796875 20.85546875 Z " fill="#090909" transform="translate(180.046875,30.51953125)"/>
<path d="M0 0 C6.36786075 -0.10208207 12.73550763 -0.17174934 19.10400391 -0.21972656 C21.26684454 -0.2397439 23.42963173 -0.2669663 25.59228516 -0.30175781 C28.71530406 -0.35071247 31.8376026 -0.37306817 34.9609375 -0.390625 C36.39280899 -0.42159271 36.39280899 -0.42159271 37.85360718 -0.45318604 C46.08401215 -0.45588828 53.66319192 1.49525247 60 7 C60 7.66 60 8.32 60 9 C60.66 9 61.32 9 62 9 C62.81567174 10.43570266 63.62742093 11.87363434 64.4375 13.3125 C64.88996094 14.11300781 65.34242187 14.91351563 65.80859375 15.73828125 C69.31743637 22.39933002 68.88314243 30.62605808 67.421875 37.86328125 C64.86445378 45.33792599 59.79813045 50.00246948 53.19921875 54.125 C45.79372207 57.54039536 36.03110433 57 28 57 C27.67 65.25 27.34 73.5 27 82 C23.63071698 82.84232076 21.23838899 83.12851658 17.83203125 83.1328125 C16.36926758 83.13474609 16.36926758 83.13474609 14.87695312 83.13671875 C13.86568359 83.13285156 12.85441406 83.12898438 11.8125 83.125 C10.78962891 83.12886719 9.76675781 83.13273437 8.71289062 83.13671875 C7.74158203 83.13542969 6.77027344 83.13414063 5.76953125 83.1328125 C4.43305542 83.13112061 4.43305542 83.13112061 3.06958008 83.12939453 C1 83 1 83 0 82 C-0.09506052 79.44410112 -0.12556761 76.91532028 -0.11352539 74.35913086 C-0.11367142 73.55919205 -0.11381744 72.75925323 -0.1139679 71.93507385 C-0.11326855 69.27830335 -0.10547518 66.62160207 -0.09765625 63.96484375 C-0.09579215 62.12781309 -0.09436821 60.29078194 -0.09336853 58.45375061 C-0.08954275 53.60890338 -0.07971196 48.76408592 -0.06866455 43.91925049 C-0.05845172 38.97937422 -0.05387119 34.03949315 -0.04882812 29.09960938 C-0.03808974 19.39972647 -0.0210126 9.69986571 0 0 Z M27 22 C27 26.29 27 30.58 27 35 C28.588125 35.061875 30.17625 35.12375 31.8125 35.1875 C32.70582031 35.22230469 33.59914063 35.25710937 34.51953125 35.29296875 C37.02878114 35.19945442 37.02878114 35.19945442 38.80078125 33.70703125 C40.79958597 30.86182713 40.35896649 28.35035393 40 25 C38.87082009 23.19342404 38.87082009 23.19342404 37 22 C34.48710325 21.63786432 34.48710325 21.63786432 31.8125 21.8125 C30.224375 21.874375 28.63625 21.93625 27 22 Z " fill="#050505" transform="translate(39,24)"/>
<path d="M0 0 C0.33 0 0.66 0 1 0 C1 26.73 1 53.46 1 81 C8.92 81 16.84 81 25 81 C25 72.42 25 63.84 25 55 C28.0525 54.95875 31.105 54.9175 34.25 54.875 C43.85502981 54.52687316 51.22312538 52.96654379 58.7265625 46.515625 C64.04449406 40.73120822 65.47780662 34.40685626 65.25 26.875 C65.24226563 25.84052734 65.24226563 25.84052734 65.234375 24.78515625 C65.17771036 21.08070522 64.86912004 17.60264273 64 14 C66 15 66 15 67.1015625 17.640625 C69.29571727 25.84485589 69.07285785 34.99059289 65.45703125 42.74609375 C61.74393797 48.48994046 56.10855579 53.45643353 49.515625 55.546875 C42.47866911 56.81440122 35.13910799 57 28 57 C27.67 65.25 27.34 73.5 27 82 C23.63071698 82.84232076 21.23838899 83.12851658 17.83203125 83.1328125 C16.36926758 83.13474609 16.36926758 83.13474609 14.87695312 83.13671875 C13.86568359 83.13285156 12.85441406 83.12898438 11.8125 83.125 C10.78962891 83.12886719 9.76675781 83.13273437 8.71289062 83.13671875 C7.74158203 83.13542969 6.77027344 83.13414063 5.76953125 83.1328125 C4.43305542 83.13112061 4.43305542 83.13112061 3.06958008 83.12939453 C1 83 1 83 0 82 C-0.09506052 79.44410112 -0.12556761 76.91532028 -0.11352539 74.35913086 C-0.11367142 73.55919205 -0.11381744 72.75925323 -0.1139679 71.93507385 C-0.11326855 69.27830335 -0.10547518 66.62160207 -0.09765625 63.96484375 C-0.09579215 62.12781309 -0.09436821 60.29078194 -0.09336853 58.45375061 C-0.08954275 53.60890338 -0.07971196 48.76408592 -0.06866455 43.91925049 C-0.05845172 38.97937422 -0.05387119 34.03949315 -0.04882812 29.09960938 C-0.03808974 19.39972647 -0.0210126 9.69986571 0 0 Z " fill="#B8B8B8" transform="translate(39,24)"/>
<path d="M0 0 C0.33 0 0.66 0 1 0 C1 26.73 1 53.46 1 81 C9.25 81 17.5 81 26 81 C26 68.46 26 55.92 26 43 C29.46770286 49.93540573 29.00780107 55.81710889 28.75805664 63.36108398 C28.68765655 65.55761568 28.63342375 67.75416797 28.58007812 69.95117188 C28.53744469 71.34378055 28.4938574 72.73636041 28.44921875 74.12890625 C28.41143311 75.39806885 28.37364746 76.66723145 28.3347168 77.97485352 C28 81 28 81 26 83 C23.49389648 83.24291992 23.49389648 83.24291992 20.37109375 83.23046875 C19.25412109 83.22853516 18.13714844 83.22660156 16.98632812 83.22460938 C15.81521484 83.21236328 14.64410156 83.20011719 13.4375 83.1875 C12.26251953 83.18685547 11.08753906 83.18621094 9.87695312 83.18554688 C1.14012141 83.14012141 1.14012141 83.14012141 0 82 C-0.09506052 79.44410112 -0.12556761 76.91532028 -0.11352539 74.35913086 C-0.11367142 73.55919205 -0.11381744 72.75925323 -0.1139679 71.93507385 C-0.11326855 69.27830335 -0.10547518 66.62160207 -0.09765625 63.96484375 C-0.09579215 62.12781309 -0.09436821 60.29078194 -0.09336853 58.45375061 C-0.08954275 53.60890338 -0.07971196 48.76408592 -0.06866455 43.91925049 C-0.05845172 38.97937422 -0.05387119 34.03949315 -0.04882812 29.09960938 C-0.03808974 19.39972647 -0.0210126 9.69986571 0 0 Z " fill="#CFCFCF" transform="translate(203,24)"/>
<path d="M0 0 C2 1 2 1 2.8515625 2.7578125 C6.45250747 13.77888649 6.52970877 26.22299773 2 37 C0.22057439 40.19000669 -1.78972994 43.09608136 -4 46 C-4.9590625 47.36125 -4.9590625 47.36125 -5.9375 48.75 C-12.67150456 56.09618679 -21.92583045 60.77028725 -31.87109375 61.453125 C-40.79307428 61.76302621 -49.09327808 61.6608045 -57 57 C-56.01 56.505 -56.01 56.505 -55 56 C-53.328125 56.55859375 -53.328125 56.55859375 -51.25 57.4375 C-40.71446557 61.11899915 -29.50627857 59.55175132 -19.59765625 54.86328125 C-9.14686599 49.35096759 -2.18750172 41.79344521 1.4375 30.25 C3.29618212 20.48681261 2.56516143 9.52774247 0 0 Z " fill="#D8D8D8" transform="translate(191,46)"/>
<path d="M0 0 C0.66 0 1.32 0 2 0 C2.125 3.375 2.125 3.375 2 7 C1.34 7.66 0.68 8.32 0 9 C-0.76507506 11.06787329 -0.76507506 11.06787329 -1.3671875 13.47265625 C-1.61339844 14.37306641 -1.85960937 15.27347656 -2.11328125 16.20117188 C-2.61377925 18.0812477 -3.11379406 19.96145225 -3.61328125 21.84179688 C-3.86207031 22.75123047 -4.11085938 23.66066406 -4.3671875 24.59765625 C-4.69372314 25.82754272 -4.69372314 25.82754272 -5.02685547 27.08227539 C-6.38879925 31.16571496 -8.25174634 35.06642926 -10 39 C-17.26 39 -24.52 39 -32 39 C-32.33 38.34 -32.66 37.68 -33 37 C-25.74 37 -18.48 37 -11 37 C-10.59136719 35.29328125 -10.18273437 33.5865625 -9.76171875 31.828125 C-8.06389297 25.03682189 -5.98416118 18.40243044 -3.8125 11.75 C-3.44447266 10.61175781 -3.07644531 9.47351563 -2.69726562 8.30078125 C-1.80170597 5.53268778 -0.9025785 2.76581112 0 0 Z " fill="#DFDFDF" transform="translate(274,68)"/>
<path d="M0 0 C0.639375 0.495 1.27875 0.99 1.9375 1.5 C-0.66589394 2.80169697 -1.55743108 2.21997706 -4.3125 1.4375 C-8.54476175 0.43887644 -11.08384087 0.46440696 -15.0625 2.5 C-17.9132362 4.8756135 -19.69593723 7.06288757 -21.0625 10.5 C-21.34178675 13.60902882 -21.34178675 13.60902882 -21.25 16.9375 C-21.24355469 18.04996094 -21.23710937 19.16242188 -21.23046875 20.30859375 C-21.08086796 23.15100884 -20.70875807 25.73401547 -20.0625 28.5 C-24.00135407 24.73240046 -24.28528545 22.34301513 -24.4375 16.875 C-24.38635931 11.33475908 -24.00559841 7.43606991 -20.60546875 2.98828125 C-15.08619458 -2.33537308 -6.74315874 -3.30277163 0 0 Z " fill="#D7D7D7" transform="translate(161.0625,47.5)"/>
<path d="M0 0 C2 1 2 1 3.1015625 3.640625 C5.34829513 12.04145135 4.93868658 20.95144975 1.28125 28.8671875 C-0.74023917 32.2322274 -2.97137611 34.4980933 -6 37 C-6.66 37 -7.32 37 -8 37 C-6.91611365 34.56125571 -5.78814964 32.74714634 -4.0625 30.6875 C0.36424288 24.91931988 1.46391843 19.94767824 1.25 12.875 C1.24484375 12.18535156 1.2396875 11.49570312 1.234375 10.78515625 C1.17771036 7.08070522 0.86912004 3.60264273 0 0 Z " fill="#DEDEDE" transform="translate(103,38)"/>
<path d="M0 0 C0.66 0 1.32 0 2 0 C2.125 3.375 2.125 3.375 2 7 C1.34 7.66 0.68 8.32 0 9 C-0.60311615 10.68761858 -1.13850237 12.40014476 -1.625 14.125 C-1.88539063 15.03507812 -2.14578125 15.94515625 -2.4140625 16.8828125 C-2.60742188 17.58148438 -2.80078125 18.28015625 -3 19 C-3.33 19 -3.66 19 -4 19 C-4.62621031 12.11168659 -2.35806067 6.41097745 0 0 Z " fill="#DEDEDE" transform="translate(274,68)"/>
<path d="M0 0 C0.639375 0.495 1.27875 0.99 1.9375 1.5 C-0.66589394 2.80169697 -1.55743108 2.21997706 -4.3125 1.4375 C-8.5750654 0.41284486 -10.97709977 0.7358499 -15.0625 2.5 C-16.72338045 2.86106097 -18.38868981 3.20462173 -20.0625 3.5 C-14.84152262 -2.28036782 -7.07420866 -3.46491853 0 0 Z " fill="#C8C8C8" transform="translate(161.0625,47.5)"/>
<path d="M0 0 C-1 3 -1 3 -3.0625 4.1875 C-6.85475122 5.23642055 -10.07062002 5.13319932 -14 5 C-14 4.67 -14 4.34 -14 4 C-13.30132812 3.79503906 -12.60265625 3.59007813 -11.8828125 3.37890625 C-10.97273437 3.10949219 -10.06265625 2.84007813 -9.125 2.5625 C-8.22007812 2.29566406 -7.31515625 2.02882813 -6.3828125 1.75390625 C-0.83937824 0 -0.83937824 0 0 0 Z " fill="#CDCDCD" transform="translate(173,101)"/>
</svg>
